<svg width="109" height="120" viewBox="0 0 109 120" fill="none" xmlns="http://www.w3.org/2000/svg">
<path d="M1.59766 7.18532H16.1014L24.3896 1H82.4105L90.6988 7.18532H107.275V54.5981C107.275 101.993 53.4001 118.5 53.4001 118.5C53.4001 118.5 1.59766 102.128 1.59766 54.5981V7.18532Z" stroke="#D4D4D4" stroke-width="2" stroke-linecap="round" stroke-linejoin="round"/>
<path d="M53.3999 58.7196V69.1862M32.6777 44.2882H74.1221V66.9657C74.1221 76.682 63.1675 87.5794 53.3999 87.5794C43.6324 87.5794 32.6777 76.682 32.6777 66.9657V44.2882Z" stroke="#D4D4D4" stroke-width="2" stroke-linecap="round" stroke-linejoin="round"/>
<path d="M38.8962 44.2882V35.8824C39.2996 32.1819 40.9592 28.7314 43.5985 26.1063C46.2379 23.4813 49.6973 21.8403 53.4 21.457C57.1041 21.8399 60.5649 23.4815 63.205 26.1078C65.845 28.7341 67.5045 32.1863 67.9067 35.8884V44.2942" stroke="#D4D4D4" stroke-width="2" stroke-linecap="round" stroke-linejoin="round"/>
</svg>
