<svg width="145" height="66" viewBox="0 0 145 66" fill="none" xmlns="http://www.w3.org/2000/svg">
<g clip-path="url(#clip0_535_11833)">
<path d="M44.5483 30.101L56.096 4.93717C56.1474 4.81207 56.2352 4.70559 56.3478 4.63178C56.4605 4.55796 56.5928 4.52027 56.7271 4.52369H57.0979C57.2331 4.51567 57.3674 4.55149 57.481 4.62589C57.5945 4.7003 57.6815 4.80939 57.729 4.93717L69.1633 30.098C69.2195 30.2026 69.2465 30.3206 69.2416 30.4395C69.2366 30.5584 69.1999 30.6737 69.1352 30.7733C69.0706 30.8729 68.9804 30.953 68.8742 31.0052C68.7681 31.0574 68.6499 31.0798 68.5322 31.0699H65.2998C64.7452 31.0699 64.4848 30.8447 64.2244 30.3232L62.4045 26.284H51.3072L49.4872 30.3232C49.4083 30.5463 49.2616 30.7387 49.0681 30.8733C48.8745 31.0079 48.6439 31.0777 48.4088 31.073H45.1795C45.0617 31.0829 44.9435 31.0605 44.8374 31.0083C44.7312 30.9561 44.6411 30.876 44.5764 30.7764C44.5118 30.6768 44.475 30.5615 44.4701 30.4426C44.4651 30.3237 44.4922 30.2057 44.5483 30.101ZM60.5876 22.1369L56.8742 13.9104H56.7639L53.124 22.1369H60.5876Z" fill="#73B37B"/>
<path d="M82.7241 4.52673C86.0574 4.56547 89.268 5.79829 91.7808 8.00432C91.8536 8.06921 91.9125 8.14834 91.954 8.23689C91.9955 8.32544 92.0187 8.42155 92.0221 8.5194C92.0255 8.61724 92.0092 8.71476 91.974 8.80604C91.9389 8.89732 91.8857 8.98045 91.8176 9.05037L89.5167 11.4819C89.4571 11.5522 89.3831 11.6087 89.2998 11.6474C89.2165 11.6861 89.1258 11.7062 89.0341 11.7062C88.9423 11.7062 88.8517 11.6861 88.7684 11.6474C88.6851 11.6087 88.6111 11.5522 88.5515 11.4819C87.0094 10.0928 85.0136 9.32392 82.9447 9.32191C78.306 9.32191 74.6294 13.3333 74.6294 17.9958C74.6294 22.6583 78.2937 26.537 82.9723 26.537C84.4899 26.5225 85.99 26.208 87.3873 25.6113V22.4361H84.4184C84.3278 22.4403 84.2374 22.426 84.1525 22.3941C84.0675 22.3623 83.9898 22.3135 83.924 22.2507C83.8583 22.1879 83.8057 22.1124 83.7696 22.0286C83.7334 21.9449 83.7144 21.8547 83.7137 21.7634V18.8228C83.7107 18.7288 83.7269 18.6351 83.7613 18.5477C83.7956 18.4602 83.8474 18.3808 83.9135 18.3143C83.9795 18.2477 84.0584 18.1956 84.1452 18.161C84.2321 18.1264 84.325 18.1101 84.4184 18.1131H91.5449C91.7278 18.1179 91.9014 18.1951 92.0281 18.328C92.1548 18.4608 92.2245 18.6386 92.222 18.8228V28.3884C92.2234 28.5058 92.1962 28.6218 92.1427 28.7261C92.0893 28.8305 92.0114 28.9201 91.9156 28.9871C89.1088 30.5752 85.9435 31.4093 82.7241 31.4093C79.1845 31.4093 75.7898 29.9932 73.2869 27.4725C70.784 24.9517 69.3779 21.5329 69.3779 17.968C69.3779 14.4032 70.784 10.9843 73.2869 8.4636C75.7898 5.94287 79.1845 4.52673 82.7241 4.52673Z" fill="#73B37B"/>
<path d="M96.5574 5.61285C96.5574 5.42434 96.6315 5.2435 96.7636 5.10992C96.8957 4.97633 97.0749 4.90087 97.2621 4.90005H107.878C110.01 4.88691 112.059 5.72646 113.576 7.23425C115.094 8.74204 115.955 10.7947 115.97 12.9414C115.97 16.3789 113.706 19.1838 110.476 20.4921L115.562 29.9868C115.631 30.0967 115.668 30.2233 115.67 30.3531C115.672 30.4828 115.639 30.6106 115.574 30.7225C115.509 30.8345 115.414 30.9264 115.301 30.9882C115.188 31.0499 115.06 31.0793 114.931 31.0729H111.034C110.914 31.0793 110.794 31.0511 110.688 30.9916C110.583 30.932 110.497 30.8436 110.44 30.7366L105.504 20.8284H101.383V30.3632C101.377 30.5495 101.301 30.7265 101.17 30.8582C101.039 30.99 100.863 31.0668 100.678 31.0729H97.2621C97.0752 31.0729 96.8959 30.9982 96.7638 30.8651C96.6316 30.732 96.5574 30.5515 96.5574 30.3632V5.61285ZM107.471 16.8294C108.456 16.802 109.392 16.3879 110.079 15.6755C110.766 14.963 111.149 14.0085 111.147 13.0154C111.127 12.0468 110.731 11.1247 110.044 10.4469C109.357 9.76905 108.433 9.38953 107.471 9.38975H101.414V16.8294H107.471Z" fill="#73B37B"/>
<path d="M131.636 4.52678C134.279 4.51947 136.865 5.30172 139.067 6.77461C141.268 8.24751 142.987 10.3449 144.005 12.8015C145.024 15.2582 145.296 17.9638 144.787 20.5761C144.279 23.1885 143.012 25.5903 141.148 27.4779C139.284 29.3654 136.907 30.6539 134.316 31.1805C131.725 31.707 129.037 31.4479 126.592 30.4359C124.147 29.424 122.055 27.7046 120.581 25.4952C119.106 23.2858 118.315 20.6857 118.308 18.0236C118.3 16.2552 118.638 14.5025 119.304 12.8661C119.97 11.2298 120.951 9.74196 122.189 8.48801C123.427 7.23406 124.899 6.23866 126.52 5.55889C128.141 4.87913 129.88 4.52839 131.636 4.52678ZM131.636 26.5864C133.327 26.5938 134.983 26.0947 136.393 25.1525C137.803 24.2104 138.903 22.8677 139.554 21.2948C140.205 19.7218 140.377 17.9896 140.049 16.318C139.721 14.6463 138.907 13.1106 137.71 11.9057C136.514 10.7007 134.989 9.88093 133.329 9.55028C131.669 9.21964 129.949 9.39306 128.388 10.0485C126.826 10.704 125.493 11.812 124.557 13.2319C123.622 14.6518 123.126 16.3196 123.133 18.0236C123.147 20.2904 124.047 22.4604 125.639 24.0632C127.23 25.6661 129.385 26.5727 131.636 26.5864Z" fill="#73B37B"/>
<path d="M23.2056 1.83698e-05C27.7358 1.83698e-05 32.0804 1.81245 35.2837 5.03859C38.487 8.26474 40.2866 12.6403 40.2866 17.2028C40.2866 21.7652 38.487 26.1408 35.2837 29.367C32.0804 32.5931 27.7358 34.4056 23.2056 34.4056C20.9647 34.4195 18.7433 33.9852 16.6702 33.128C14.5972 32.2707 12.7138 31.0075 11.1292 29.4116C9.54457 27.8157 8.2903 25.9188 7.43911 23.831C6.58792 21.7432 6.15673 19.506 6.17056 17.2491C6.15519 14.9874 6.58465 12.745 7.43416 10.6513C8.28366 8.55759 9.53641 6.65403 11.1201 5.05042C12.7038 3.44682 14.5871 2.17492 16.6614 1.3081C18.7357 0.441284 20.9599 -0.00329364 23.2056 1.83698e-05ZM23.2056 28.194C26.1 28.194 28.8759 27.036 30.9226 24.9748C32.9692 22.9135 34.1191 20.1178 34.1191 17.2028C34.1191 14.2877 32.9692 11.4921 30.9226 9.43079C28.8759 7.36953 26.1 6.21153 23.2056 6.21153C17.228 6.21153 12.3412 11.2289 12.3412 17.2491C12.3484 20.1491 13.4953 22.9282 15.5311 24.9791C17.567 27.0301 20.3261 28.1859 23.2056 28.194Z" fill="#73B37B"/>
<path d="M17.0319 1.84046e-05C21.5621 1.84046e-05 25.9067 1.81245 29.11 5.03859C32.3133 8.26474 34.1129 12.6403 34.1129 17.2028C34.1129 21.7652 32.3133 26.1408 29.11 29.367C25.9067 32.5931 21.5621 34.4056 17.0319 34.4056C14.7911 34.4195 12.5699 33.9852 10.497 33.1279C8.42414 32.2706 6.54092 31.0074 4.95655 29.4114C3.37218 27.8155 2.11821 25.9186 1.26735 23.8308C0.416495 21.743 -0.0143064 19.5058 -6.83568e-05 17.2491C-0.0158479 14.9875 0.413229 12.7452 1.2624 10.6515C2.11157 8.55784 3.36403 6.65425 4.94749 5.05061C6.53095 3.44696 8.41407 2.17501 10.4882 1.30816C12.5623 0.441302 14.7863 -0.00329683 17.0319 1.84046e-05ZM17.0319 31.0607C20.6716 31.0542 24.1611 29.5985 26.7393 27.0112C29.3175 24.4238 30.7753 20.9147 30.7947 17.2491C30.7947 9.65208 24.5782 3.34492 17.0319 3.34492C9.48563 3.34492 3.32115 9.65208 3.32115 17.2491C3.33005 20.9088 4.77733 24.4162 7.34658 27.0044C9.91583 29.5925 13.398 31.0509 17.0319 31.0607Z" fill="#094F38"/>
<path d="M28.2424 40.1665C28.2424 39.9783 28.3167 39.7978 28.4488 39.6647C28.581 39.5316 28.7602 39.4568 28.9471 39.4568H37.1521C41.7173 39.4568 45.4674 43.1936 45.4674 47.7172C45.4683 49.9348 44.5997 52.0631 43.0505 53.6389C41.5013 55.2148 39.3968 56.1108 37.195 56.1319H31.0673V64.9169C31.0611 65.1037 30.9845 65.2811 30.853 65.4129C30.7215 65.5448 30.545 65.6212 30.3596 65.6266H28.9502C28.7633 65.6266 28.584 65.5518 28.4519 65.4187C28.3197 65.2856 28.2455 65.1051 28.2455 64.9169L28.2424 40.1665ZM36.9652 53.364C38.4661 53.3567 39.9029 52.7504 40.9608 51.6781C42.0187 50.6057 42.6113 49.1548 42.6089 47.6431C42.6089 44.6161 40.0107 42.2987 36.9652 42.2987H31.0642V53.364H36.9652Z" fill="#094F38"/>
<path d="M44.5759 64.6546L55.8601 39.4969C55.9119 39.3724 55.9999 39.2666 56.1126 39.1934C56.2252 39.1201 56.3572 39.0829 56.4912 39.0865H56.862C56.996 39.0829 57.128 39.1201 57.2406 39.1934C57.3532 39.2666 57.4413 39.3724 57.4931 39.4969L68.7038 64.6577C68.7599 64.7624 68.787 64.8804 68.782 64.9993C68.7771 65.1182 68.7403 65.2335 68.6757 65.3331C68.611 65.4327 68.5208 65.5128 68.4147 65.565C68.3085 65.6172 68.1903 65.6396 68.0726 65.6297H66.5866C66.4536 65.6303 66.3234 65.5918 66.2118 65.5189C66.1002 65.446 66.0122 65.3419 65.9585 65.2193L63.2011 59.0479H50.0265L47.315 65.2193C47.2611 65.3424 47.1726 65.4468 47.0604 65.5197C46.9483 65.5927 46.8173 65.6309 46.6838 65.6297H45.2009C45.0833 65.6387 44.9654 65.6156 44.8597 65.5627C44.754 65.5099 44.6644 65.4293 44.6004 65.3294C44.5364 65.2296 44.5004 65.1142 44.496 64.9954C44.4917 64.8767 44.5193 64.7589 44.5759 64.6546ZM62.1961 56.7275C60.3762 52.6544 58.5961 48.5411 56.7762 44.4649H56.4698L51.0498 56.7275H62.1961Z" fill="#094F38"/>
<path d="M82.9967 39.0835C86.7438 39.0835 89.4553 40.3918 91.9799 42.558C92.0528 42.6232 92.1117 42.7026 92.1532 42.7914C92.1948 42.8802 92.2179 42.9765 92.2214 43.0746C92.2248 43.1727 92.2084 43.2705 92.1732 43.362C92.1381 43.4536 92.0848 43.5369 92.0167 43.6071C91.6827 43.9435 91.2752 44.3168 90.978 44.6532C90.6808 44.9895 90.4204 44.9895 90.0129 44.6162C88.1194 42.9344 85.4447 41.7002 82.966 41.7002C77.0988 41.7002 72.6439 46.6373 72.6439 52.4291C72.6439 58.221 77.0988 63.2291 82.966 63.2291C87.0471 63.2291 89.6452 61.6585 89.6452 61.6585V56.4128H85.3712C85.2804 56.4169 85.1897 56.4026 85.1045 56.3705C85.0194 56.3385 84.9415 56.2894 84.8757 56.2263C84.8099 56.1631 84.7574 56.0872 84.7215 56.0032C84.6855 55.9191 84.6668 55.8286 84.6665 55.737V54.3546C84.6635 54.2606 84.6797 54.167 84.714 54.0795C84.7484 53.992 84.8002 53.9126 84.8662 53.8461C84.9323 53.7796 85.0112 53.7274 85.098 53.6928C85.1848 53.6582 85.2778 53.6419 85.3712 53.6449H91.8053C91.9862 53.6529 92.157 53.7314 92.2817 53.8638C92.4063 53.9962 92.4749 54.1722 92.4732 54.3546V62.9483C92.4493 63.1795 92.3399 63.3932 92.1668 63.5469C89.3791 65.1657 86.2176 66.0171 82.9997 66.0155C81.2279 66.0425 79.4683 65.7143 77.8235 65.0501C76.1788 64.3859 74.6816 63.3989 73.4191 62.1465C72.1566 60.8941 71.154 59.4013 70.4696 57.7551C69.7853 56.1088 69.4329 54.3419 69.4329 52.5572C69.4329 50.7725 69.7853 49.0056 70.4696 47.3593C71.154 45.713 72.1566 44.2203 73.4191 42.9679C74.6816 41.7155 76.1788 40.7285 77.8235 40.0643C79.4683 39.4 81.2279 39.0719 82.9997 39.0989L82.9967 39.0835Z" fill="#094F38"/>
<path d="M108.981 39.0834C111.625 39.0761 114.211 39.8584 116.413 41.3315C118.615 42.8045 120.333 44.9021 121.351 47.3589C122.37 49.8157 122.641 52.5214 122.133 55.1339C121.624 57.7463 120.357 60.1482 118.493 62.0356C116.629 63.923 114.251 65.2113 111.659 65.7375C109.068 66.2637 106.38 66.0041 103.935 64.9917C101.491 63.9793 99.3989 62.2594 97.9247 60.0496C96.4506 57.8398 95.6601 55.2394 95.6535 52.5772C95.6454 50.8089 95.9841 49.0563 96.6502 47.4202C97.3162 45.784 98.2965 44.2964 99.5348 43.0427C100.773 41.7889 102.245 40.7938 103.866 40.1144C105.487 39.435 107.225 39.0846 108.981 39.0834ZM108.981 63.3833C111.114 63.3919 113.202 62.7621 114.979 61.5739C116.756 60.3857 118.142 58.6927 118.963 56.7096C119.783 54.7266 120 52.5428 119.586 50.4354C119.172 48.328 118.145 46.392 116.637 44.873C115.129 43.3539 113.206 42.3204 111.114 41.9033C109.021 41.4863 106.853 41.7047 104.884 42.5308C102.915 43.3568 101.234 44.7533 100.054 46.543C98.8746 48.3328 98.2493 50.4351 98.2577 52.5834C98.2746 55.4424 99.4098 58.1796 101.417 60.2013C103.425 62.223 106.142 63.3663 108.981 63.3833Z" fill="#094F38"/>
</g>
<defs>
<clipPath id="clip0_535_11833">
<rect width="145" height="66" fill="white"/>
</clipPath>
</defs>
</svg>
